<svg width="169" height="59" viewBox="0 0 169 59" fill="none" xmlns="http://www.w3.org/2000/svg">
<path d="M112.252 0H105.148V51.2478C111.604 51.5343 118.034 51.9545 124.437 52.5051V43.4762C120.386 43.1278 116.325 42.8324 112.252 42.5878V0ZM168.712 0.00518419H160.908L155.764 15.3841L151.142 0.00518419H143.455L151.716 27.4852L142.699 54.444C145.193 54.7579 147.681 55.0927 150.166 55.4465L155.41 39.7718L160.604 57.0509C163.309 57.4995 166.007 57.9677 168.701 58.4634L168.712 58.4575L159.457 27.6708L168.712 0.00518419ZM80.7607 50.7999L87.8654 50.798V29.9518H97.4963V20.9229H87.8654V9.11579H100.594V0.00564258H80.7607V50.7999ZM54.2303 9.11518H61.6661V51.3369C64.0302 51.2216 66.3991 51.1267 68.7705 51.0467V9.11518H76.2059V0.00518419H54.2303V9.11518ZM29.9415 53.9609C36.4896 53.1935 43.0678 52.5609 49.6759 52.07V43.0401C45.4539 43.3549 41.2438 43.7275 37.0459 44.1533V30.4838C39.8003 30.4484 43.4272 30.34 46.6403 30.3916V21.3619C44.0733 21.3538 39.9476 21.4081 37.0459 21.456V9.11579H49.6759V0.00564258H29.9415V53.9609ZM16.0052 33.0874L6.75203 0.00518419H0V58.4646C2.36362 58.0306 4.73174 57.6151 7.10447 57.2165V25.4264L15.3321 55.9112C17.9199 55.5241 20.5123 55.1575 23.1098 54.8129V0.00518419H16.0052V33.0874ZM130.294 53.0487C132.666 53.2828 135.034 53.534 137.4 53.8054V0.00518419H130.294V53.0487Z" fill="#ED1C24"/>
</svg>
